<?xml version="1.0" encoding="utf-8"?>
<!-- Generator: Adobe Illustrator 22.0.0, SVG Export Plug-In . SVG Version: 6.00 Build 0)  -->
<svg version="1.1" id="Layer_1" xmlns="http://www.w3.org/2000/svg" xmlns:xlink="http://www.w3.org/1999/xlink" x="0px" y="0px"
	 viewBox="0 0 452 130" style="enable-background:new 0 0 452 130;" xml:space="preserve">
<style type="text/css">
	.st0{fill:#22A1E0;}
</style>
<path class="st0" d="M39.8,68.3c9.1,6.5,18.3,13,27.4,19.5c0.1,0.1,0.2,0.2,0.4,0.1c0-0.1,0-0.2,0-0.3c0-7.2,0-14.3,0-21.5
	c0-0.4-0.2-0.6-0.4-0.8c-2.6-1.9-5.3-3.7-7.9-5.6c-1.2-0.8-2.4-1.7-3.6-2.6c4.3-2.8,8.5-5.5,12.7-8.3C49.9,35.7,31.5,22.6,13,9.3
	c0,0.9,0,1.7,0,2.6c0,6.4,0,12.8,0,19.2c0,0.4,0.1,0.7,0.5,0.9c1.1,0.8,2.2,1.6,3.3,2.4C24,39.6,31.4,44.8,38.6,50
	c3.3,2.3,6.6,4.7,9.9,7.1c-0.2,0.2-0.4,0.3-0.6,0.4c-2.7,1.7-5.3,3.5-8,5.2c-0.4,0.3-0.7,0.3-1.1,0C31.2,57.3,23.6,51.9,16,46.5
	c-1-0.7-2-1.4-3-2.1c0,0.2,0,0.2,0,0.3c0,7.4,0,14.8,0,22.2c0,0.4,0.2,0.6,0.5,0.8c2.8,2,5.7,4,8.5,6c0.5,0.3,0.4,0.5,0,0.8
	c-3.1,2-6.2,4.1-9.4,6.1c-0.6,0.4-1.1,0.7-1.7,1.1c-0.6,0.5-0.6,0.7,0,1.1c3,2.1,5.9,4.3,8.9,6.4c15.8,11.3,31.6,22.5,47.5,33.8
	c0.1,0.1,0.2,0.3,0.4,0.1c0,0,0,0,0-0.1c0-7.2,0-14.3,0-21.5c0-0.4-0.2-0.5-0.4-0.7c-1.7-1.2-3.5-2.4-5.2-3.6
	C52,90.2,41.9,83,31.8,75.8c-0.7-0.5-1.4-1-2.1-1.6c3.1-2.1,6.2-4,9.2-6C39.3,67.9,39.5,68.1,39.8,68.3z M38.5,44.9
	c-7.5-5.3-15-10.6-22.5-16c-0.4-0.3-0.5-0.5-0.5-1c0-3.7,0-7.4,0-11.1c0-0.2,0-0.4,0-0.7C30.8,27,46,37.8,61.3,48.7
	c-1.9,1.2-3.6,2.4-5.4,3.6c-1.1,0.7-2.1,1.4-3.2,2.1c-0.4,0.2-0.6,0.2-0.9,0C47.3,51.2,42.9,48.1,38.5,44.9z M49.2,61.4
	c0.8-0.5,1.7-1.1,2.5-1.6c0.3-0.2,0.5-0.2,0.8,0c4.1,2.9,8.2,5.9,12.3,8.8c0.2,0.1,0.4,0.3,0.4,0.6c0,4.1,0,8.1,0,12.3
	c-7.5-5.3-14.8-10.6-22.3-15.9C45,64.2,47.1,62.8,49.2,61.4z M64.7,104.1c0.2,0.2,0.4,0.3,0.4,0.7c0,3.9,0,7.7,0,11.6
	c0,0,0,0.1-0.1,0.2c-15.9-11.4-31.9-22.7-47.9-34.2c1.4-0.9,2.7-1.8,4-2.6c1.5-1,3.1-2,4.6-3c0.3-0.2,0.5-0.2,0.7,0
	C39.2,85.9,52,95,64.7,104.1z M26.5,71.5c-0.3,0.2-0.4,0.1-0.7-0.1c-3.3-2.4-6.7-4.8-10-7.1c-0.2-0.1-0.3-0.3-0.3-0.6
	c0-4.2,0-8.4,0-12.7c6.8,4.8,13.5,9.6,20.3,14.4C32.6,67.5,29.5,69.5,26.5,71.5z"/>
<g>
	<path d="M146.3,54.1c4.3,4.2,6.4,9.8,6.4,16.7c0,6.8-2.1,12.4-6.4,16.7c-4.3,4.3-9.9,6.5-17,6.5h-13.5V47.7h13.5 C136.4,47.7,142,49.8,146.3,54.1z M122.7,54.4v32.8h6.5c5,0,9-1.5,11.9-4.6c3-3.1,4.4-7,4.4-11.9c0-4.9-1.5-8.9-4.4-11.9 c-2.9-3-6.9-4.4-11.9-4.4H122.7z"/>
	<path d="M196.8,53.8c4.4,4.6,6.6,10.3,6.6,17c0,6.7-2.2,12.4-6.6,17c-4.4,4.6-9.7,6.9-16,6.9c-6.3,0-11.6-2.3-16-6.9 c-4.4-4.6-6.5-10.3-6.5-17c0-6.7,2.2-12.4,6.5-17s9.7-6.9,16-6.9C187,46.9,192.3,49.2,196.8,53.8z M169.8,58.5 c-2.9,3.2-4.4,7.3-4.4,12.2c0,4.9,1.5,9,4.4,12.3c2.9,3.2,6.6,4.9,11.1,4.9c4.4,0,8.1-1.6,11-4.9c2.9-3.2,4.4-7.3,4.4-12.3 c0-4.9-1.5-8.9-4.4-12.1s-6.6-4.9-11-4.9C176.4,53.7,172.7,55.3,169.8,58.5z"/>
	<path d="M247,47.7v47h-2.3l-26.2-32v31.2h-6.9v-47h2.4l26.1,31.9V47.7H247z"/>
	<path d="M283.7,86.2h-19.3l-3.1,7.7h-7.4l18.9-47h2.3l18.9,47h-7.4L283.7,86.2z M274.1,60.6l-7.2,19.2h14.3L274.1,60.6z"/>
	<path d="M327.6,54.3h-14.5v39.6h-6.9V54.3h-14.5v-6.7h35.9V54.3z"/>
	<path d="M341,93.9h-6.9V47.7h6.9V93.9z"/>
	<path d="M387.7,53.8c4.4,4.6,6.6,10.3,6.6,17c0,6.7-2.2,12.4-6.6,17c-4.4,4.6-9.7,6.9-16,6.9c-6.3,0-11.6-2.3-16-6.9 c-4.4-4.6-6.5-10.3-6.5-17c0-6.7,2.2-12.4,6.5-17s9.7-6.9,16-6.9C378,46.9,383.3,49.2,387.7,53.8z M360.7,58.5 c-2.9,3.2-4.4,7.3-4.4,12.2c0,4.9,1.5,9,4.4,12.3c2.9,3.2,6.6,4.9,11.1,4.9c4.4,0,8.1-1.6,11-4.9c2.9-3.2,4.4-7.3,4.4-12.3 c0-4.9-1.5-8.9-4.4-12.1s-6.6-4.9-11-4.9C367.3,53.7,363.6,55.3,360.7,58.5z"/>
	<path d="M438,47.7v47h-2.3l-26.2-32v31.2h-6.9v-47h2.4l26.1,31.9V47.7H438z"/>
</g>
</svg>
